<svg xmlns="http://www.w3.org/2000/svg" xmlns:xlink="http://www.w3.org/1999/xlink" class="s15w2rj3-0 frrNw" viewBox="0 0 108 32"><title>mmartan</title>
<path fill="#422b18" d="M0.188 12.8c0-1.882 0-4.329-0.188-6.212h6.965c0 1.318 0.188 2.635 0.188 3.953 2.824-3.388 5.835-4.894 9.788-4.894 4.518 0 8.282 1.882 10.165 5.647 2.635-4.329 6.588-5.647 10.541-5.647 4.518 0 11.294 1.882 11.294 11.482v14.871h-7.153v-13.365c0-6.212-2.635-7.718-6.212-7.718-3.765 0-7.341 2.824-7.341 9.035v12.047h-7.153v-13.365c0-6.212-2.635-7.718-6.212-7.718-3.765 0-7.341 2.824-7.341 9.035v12.047h-7.341v-19.2z"/>
<path fill="#422b18" d="M58.541 12.8c0-1.882-0.188-4.329-0.188-6.212h6.965c0.188 1.318 0.188 2.635 0.188 3.953 2.824-3.388 5.835-4.894 9.788-4.894 4.518 0 8.282 1.882 10.165 5.647 2.635-4.329 6.588-5.647 10.541-5.647 4.518 0 11.294 1.882 11.294 11.482v14.871h-7.153v-13.365c0-6.212-2.635-7.718-6.212-7.718-3.765 0-7.341 2.824-7.341 9.035v12.047h-7.153v-13.365c0-6.212-2.635-7.718-6.212-7.718-3.765 0-7.341 2.824-7.341 9.035v12.047h-7.153v-19.2z"/></svg>